<svg xmlns="http://www.w3.org/2000/svg" viewBox="0 0 156.13 78.05"><defs><style>.a,.c{fill:#fff;}.a{stroke:#e6e7e8;stroke-miterlimit:10;stroke-width:0.25px;}.b{fill:#56c0a5;}.d{fill:#f78d1e;}.e{fill:#4d4d4f;}</style></defs><title>New PG Logo</title><path class="a" d="M.52,0h154.9a0,0,0,0,1,0,0V63.79a13.48,13.48,0,0,1-13.48,13.48H14A13.48,13.48,0,0,1,.52,63.79V0A0,0,0,0,1,.52,0Z"/><path class="b" d="M53.26,11.69a13.07,13.07,0,0,0-18.56.25h0A13.22,13.22,0,0,0,31,21.35l0,5.39H25.79a13.08,13.08,0,0,0-9.22,4h0a13.27,13.27,0,0,0,.26,18.69A13.13,13.13,0,0,0,39.1,39.76L39,35.13h0v-.76h5.26a13.05,13.05,0,0,0,9.23-4,13.27,13.27,0,0,0-.26-18.69ZM31.06,34.37h.1v.16Z"/><path class="c" d="M26.25,32.33h-.66V31.12a1.64,1.64,0,0,1,.36-1.2,2,2,0,0,1,1.52-.39h2a.92.92,0,0,0,.87-1v-2H31v2a1.57,1.57,0,0,1-1.53,1.66h-2c-.57,0-.9.06-1,.2a1,1,0,0,0-.17.73Z"/><path class="d" d="M39,34.43,39,25.81l-.05-4.64A5.22,5.22,0,0,1,39,20c0-.1,0-.19,0-.29a9.38,9.38,0,0,1,9.24-9.58,9.25,9.25,0,0,1,4.85,1.37,12.91,12.91,0,0,0-18.43.24,13.34,13.34,0,0,0-3.71,9.43l0,4.65h0v.67l.09,8.55.05,4.72a5.19,5.19,0,0,1-.06.89c0,.22,0,.44,0,.67a9.46,9.46,0,0,1-9.38,9.54,9.23,9.23,0,0,1-4.61-1.23,12.91,12.91,0,0,0,8.94,3.46,13.06,13.06,0,0,0,13-13.37Z"/><path class="c" d="M49.73,22.36l-5.44,2.78-5.45-2.78V24c0,1.17.44,2.05,2.28,3.21a12.6,12.6,0,0,0,3.16,1.49h0a12.6,12.6,0,0,0,3.16-1.49c1.84-1.16,2.28-2,2.28-3.21Z"/><path class="c" d="M51.33,25.85A1.09,1.09,0,0,0,51,25.2v-.55a.9.9,0,0,0,.27-.67.82.82,0,0,0-.4-.75V21.4a.28.28,0,0,0,0-.16l3.66-1.87L44.29,14.13,34.05,19.37,44.29,24.6l5.92-3,.27.14h0v1.5a.82.82,0,0,0-.41.76.9.9,0,0,0,.27.67v.55a1.09,1.09,0,0,0-.29.65c-.14,1.83-.2,2.51-.46,2.81-.08.42.39.91,1.07.92h0c.68,0,1.15-.5,1.07-.92C51.53,28.36,51.47,27.68,51.33,25.85Z"/><path class="c" d="M25.6,32.33h-.26a4.73,4.73,0,0,0-4.7,4.72v.25h5Z"/><path class="c" d="M26.71,32.33h-.54v5.46H20.64v5a4.72,4.72,0,0,0,4.7,4.72h1.37a4.72,4.72,0,0,0,4.69-4.72V37.05A4.72,4.72,0,0,0,26.71,32.33Z"/><path class="e" d="M52.88,42.05a4,4,0,0,1-1.4,3.33,3.85,3.85,0,0,1-1.54.73,14.26,14.26,0,0,1-2.66.18h-1.7V52H43.93V38.07h4.13a6,6,0,0,1,3.42.73A3.75,3.75,0,0,1,52.88,42.05Zm-1.65.08a3.27,3.27,0,0,0-.36-1.56,2.06,2.06,0,0,0-1-.93,7,7,0,0,0-2.44-.28H45.58v5.69h1.24A8.19,8.19,0,0,0,50,44.67,2.65,2.65,0,0,0,51.23,42.13Z"/><path class="e" d="M59.19,43.48l-.5,0a5.85,5.85,0,0,0-2.52.59V52H54.64v-9.8h1.49V43a4.34,4.34,0,0,1,2.56-1,2.67,2.67,0,0,1,.5,0Z"/><path class="e" d="M61.91,38.3a1,1,0,0,1,.29.71,1,1,0,0,1-.29.72.91.91,0,0,1-.68.3,1,1,0,0,1-1-1,1,1,0,0,1,.3-.71,1,1,0,0,1,.69-.29A1,1,0,0,1,61.91,38.3ZM62,52H60.45v-9.8H62Z"/><path class="e" d="M76.72,52H75.19V45.67c0-.36,0-.62,0-.79s0-.38-.08-.63a1.2,1.2,0,0,0-.2-.54,1.42,1.42,0,0,0-.42-.3,1.47,1.47,0,0,0-.66-.13,7.89,7.89,0,0,0-2.48.66,7.62,7.62,0,0,1,.08,1.5V52H69.89V45.67c0-.36,0-.62,0-.79a4.29,4.29,0,0,0-.07-.63,1.09,1.09,0,0,0-.21-.54,1.24,1.24,0,0,0-.41-.3,1.47,1.47,0,0,0-.66-.13,8.1,8.1,0,0,0-2.4.62V52H64.6v-9.8h1.49v.79a8.36,8.36,0,0,1,3.06-1,2,2,0,0,1,2,1.13,9,9,0,0,1,3.31-1.13,2.55,2.55,0,0,1,1.09.21,1.88,1.88,0,0,1,.67.49,2,2,0,0,1,.35.81,6.79,6.79,0,0,1,.15.93c0,.26,0,.62,0,1.08Z"/><path class="e" d="M85.58,52H84.1V51.1a6.74,6.74,0,0,1-3,1.08,2.32,2.32,0,0,1-1.77-.79,3.21,3.21,0,0,1-.73-2.27c0-1.56.61-2.5,1.84-2.81a17.7,17.7,0,0,1,3.61-.25v-.58c0-.47,0-.8,0-1a1.82,1.82,0,0,0-.19-.62.83.83,0,0,0-.54-.44,4.12,4.12,0,0,0-1.05-.1,16,16,0,0,0-2.9.33l-.16-1.06a13.59,13.59,0,0,1,3.72-.67,2.56,2.56,0,0,1,2.17.82,2.25,2.25,0,0,1,.41,1,12.6,12.6,0,0,1,.1,1.94ZM84.05,50.1v-3a8.47,8.47,0,0,0-3.1.6,1.56,1.56,0,0,0-.76,1.51,1.9,1.9,0,0,0,.35,1.23,1.17,1.17,0,0,0,1,.43,3.78,3.78,0,0,0,1-.19c.42-.12.78-.24,1.07-.35Z"/><path class="e" d="M92.63,43.48l-.49,0a5.81,5.81,0,0,0-2.52.59V52H88.09v-9.8h1.48V43a4.37,4.37,0,0,1,2.57-1,2.49,2.49,0,0,1,.49,0Z"/><path class="e" d="M101.42,42.15,97.14,53.54a6.1,6.1,0,0,1-1.22,2.21,2.64,2.64,0,0,1-1.84.53A10,10,0,0,1,93,56.2l.13-1.06.62,0a2,2,0,0,0,1.34-.32,8.22,8.22,0,0,0,1-2l.4-1-3.89-9.68h1.72l3,7.72L100,42.15Z"/><path class="e" d="M117.69,51a15.76,15.76,0,0,1-5.38,1.25,5.39,5.39,0,0,1-4.37-1.85,8,8,0,0,1-1.56-5.28A7.85,7.85,0,0,1,108,39.74a5.8,5.8,0,0,1,4.59-1.89,17.53,17.53,0,0,1,4.65.74l-.45,2.09a21.27,21.27,0,0,0-3.76-.48,3,3,0,0,0-2.6,1.19,6.57,6.57,0,0,0-.83,3.68,6.42,6.42,0,0,0,.86,3.72,2.64,2.64,0,0,0,2.26,1,6.58,6.58,0,0,0,2-.25V45.34h3Z"/><path class="e" d="M128.73,47a5.37,5.37,0,0,1-1.28,3.83,4.76,4.76,0,0,1-3.62,1.35,4.82,4.82,0,0,1-3.63-1.34,5.27,5.27,0,0,1-1.29-3.8,5.4,5.4,0,0,1,1.29-3.82,4.69,4.69,0,0,1,3.61-1.38,4.81,4.81,0,0,1,3.63,1.35A5.29,5.29,0,0,1,128.73,47Zm-3.12,0a5.14,5.14,0,0,0-.43-2.42,1.46,1.46,0,0,0-1.37-.74q-1.8,0-1.8,3.06a5.19,5.19,0,0,0,.43,2.47,1.51,1.51,0,0,0,1.41.75,1.41,1.41,0,0,0,1.33-.74A5,5,0,0,0,125.61,47Z"/><path class="e" d="M137.89,52h-2.71V51a6.57,6.57,0,0,1-3,1.16,2.38,2.38,0,0,1-1.88-.8,3.33,3.33,0,0,1-.71-2.28,3,3,0,0,1,.71-2.2,3.17,3.17,0,0,1,1.78-.8,17.28,17.28,0,0,1,3-.2v-.25a1.92,1.92,0,0,0-.31-1.3,2,2,0,0,0-1.38-.32,15.57,15.57,0,0,0-2.79.33l-.29-1.75a16.88,16.88,0,0,1,4.5-.79,2.81,2.81,0,0,1,2.65,1.12,3.28,3.28,0,0,1,.38,1.18,17.14,17.14,0,0,1,.1,2.11ZM135,49.81V47.25a4.44,4.44,0,0,0-2,.39,1.19,1.19,0,0,0-.59,1.13c0,.87.38,1.31,1.16,1.31a4,4,0,0,0,.61-.06,2.83,2.83,0,0,0,.58-.15Z"/><path class="e" d="M142.72,52h-3V37.18h3Z"/><path class="e" d="M15.45,60.54q.12,0,.12.27c-.11.84-.19,1.54-.25,2.11s-.08.95-.08,1.16a3.08,3.08,0,0,0,.46,2,1.32,1.32,0,0,0,.92.48,1.63,1.63,0,0,0,1.25-.6A3.48,3.48,0,0,0,18.54,64c.07-1.33.13-2.41.19-3.27,0-.29.05-.45.16-.47.33,0,.52.24.58.68-.06,1.49-.08,2.31-.08,2.46A3.73,3.73,0,0,1,18.64,66a2.6,2.6,0,0,1-1.73.91,2.8,2.8,0,0,1-1.68-.56,2.59,2.59,0,0,1-.77-2.16,19,19,0,0,1,.39-3.2A.55.55,0,0,1,15.45,60.54Z"/><path class="e" d="M20.29,66.73a2.56,2.56,0,0,1-.09-.94c0-.63,0-1.07,0-1.32s.06-.48.09-.7a.34.34,0,0,1,.38-.32.35.35,0,0,1,.37.24c-.06.54-.11,1-.13,1.29s0,.59,0,.78c.05,0,.17-.21.36-.62a1.49,1.49,0,0,1,1.15-.83.91.91,0,0,1,.79.34,1.94,1.94,0,0,1,.31,1.09,6.11,6.11,0,0,1-.06.86c-.05.28-.12.43-.23.46a.23.23,0,0,1-.25-.23c0-.12,0-.28,0-.48s0-.49-.07-.85-.2-.56-.49-.59-.53.32-.85,1-.67,1-1,1A.29.29,0,0,1,20.29,66.73Z"/><path class="e" d="M25.19,60.17a1,1,0,0,1,.76-.28,27.79,27.79,0,0,0-.76,5.48,3,3,0,0,0,.12.82.48.48,0,0,0,.5.41,1.5,1.5,0,0,0,.59-.13,1.36,1.36,0,0,1,.37-.14c.09,0,.14,0,.14,0s-.14.21-.42.41a1.68,1.68,0,0,1-1,.29.83.83,0,0,1-.86-.58,3.3,3.3,0,0,1-.22-1.19A21.91,21.91,0,0,1,25.19,60.17Z"/><path class="e" d="M27.33,64.33a1.18,1.18,0,0,1,1.17-.91,1.75,1.75,0,0,1,1.5.7,2.42,2.42,0,0,1,.49,1.25,1.58,1.58,0,0,1-.6,1.09,1.9,1.9,0,0,1-1.44.61,1.69,1.69,0,0,1-1.07-.36,1.1,1.1,0,0,1-.37-.87A4.59,4.59,0,0,1,27.33,64.33Zm2,.06a1.28,1.28,0,0,0-.75-.41c-.25,0-.45.21-.61.63a3.08,3.08,0,0,0-.24,1.06.94.94,0,0,0,.19.64.61.61,0,0,0,.48.21,1.49,1.49,0,0,0,.9-.4,1.13,1.13,0,0,0,.48-.83A1.2,1.2,0,0,0,29.32,64.39Z"/><path class="e" d="M34,64.48a.84.84,0,0,0-.73-.38,1.27,1.27,0,0,0-1.11.54,1.83,1.83,0,0,0-.33,1,.85.85,0,0,0,.39.72,1.58,1.58,0,0,0,.81.22,3.91,3.91,0,0,0,.62-.1,4.26,4.26,0,0,0,1-.43.94.94,0,0,1,.24-.11h0a3.77,3.77,0,0,1-.68.58,2.37,2.37,0,0,1-1.49.52,1.83,1.83,0,0,1-1.2-.37,1.19,1.19,0,0,1-.45-1,2.17,2.17,0,0,1,.36-1.23,1.69,1.69,0,0,1,.83-.73,2.81,2.81,0,0,1,1-.18,1.19,1.19,0,0,1,.75.21c.18.14.28.26.28.35S34.19,64.48,34,64.48Z"/><path class="e" d="M36.36,60.32a1,1,0,0,1,.8-.31,34.37,34.37,0,0,0-.92,3.8,13.49,13.49,0,0,0-.18,1.76q0,.81.36.81a1,1,0,0,0,.64-.37c.23-.25.48-.53.74-.86s.47-.5.64-.5.25,0,.29.07a.24.24,0,0,1,.06.18,1.23,1.23,0,0,1-.26.56,1.3,1.3,0,0,0-.26.73c0,.36.38.55,1,.55a2.55,2.55,0,0,1,.79.05s-.11.06-.32.13a4.07,4.07,0,0,1-.94.15,1.34,1.34,0,0,1-.86-.23.69.69,0,0,1-.27-.52,1.15,1.15,0,0,1,0-.26,5.12,5.12,0,0,1-.42.5,1.1,1.1,0,0,1-.85.36,1,1,0,0,1-.85-.34,2.39,2.39,0,0,1-.25-1.32,12.44,12.44,0,0,1,.16-1.54A28.19,28.19,0,0,1,36.36,60.32Z"/><path class="e" d="M40,64.49c.08-.29.21-.43.37-.44h.42c.1,0,.15.12.15.37,0,.72-.07,1.31-.12,1.76s-.13.69-.23.69h0a.75.75,0,0,1-.33-.09c-.07,0-.11-.34-.11-.92,0-.3,0-.83,0-1.59Zm.32-1.83a.42.42,0,0,1,.31-.13.56.56,0,0,1,.3.1c.11.07.17.14.17.23a.38.38,0,0,1-.14.24.42.42,0,0,1-.31.13.56.56,0,0,1-.3-.1.33.33,0,0,1-.17-.25A.35.35,0,0,1,40.35,62.66Z"/><path class="e" d="M42.11,66.73a2.56,2.56,0,0,1-.09-.94,12.51,12.51,0,0,1,0-1.32c0-.25.06-.48.09-.7a.34.34,0,0,1,.38-.32.35.35,0,0,1,.36.24c-.06.54-.1,1-.13,1.29s0,.59,0,.78c0,0,.17-.21.36-.62.36-.55.74-.83,1.15-.83a.92.92,0,0,1,.79.34,2,2,0,0,1,.3,1.09,6.11,6.11,0,0,1-.06.86c0,.28-.12.43-.22.46a.24.24,0,0,1-.26-.23c0-.12,0-.28,0-.48a8.29,8.29,0,0,0-.06-.85c0-.36-.21-.56-.5-.59s-.53.32-.85,1-.66,1-1,1A.29.29,0,0,1,42.11,66.73Z"/><path class="e" d="M48.76,65.63a2.34,2.34,0,0,0,.06-.44,1.67,1.67,0,0,0-.13-.69.41.41,0,0,0-.41-.3,1,1,0,0,0-.92.6A2.42,2.42,0,0,0,47,66c0,.29.18.44.56.44H48a1.56,1.56,0,0,1,1.44,1.13,4.87,4.87,0,0,1,.2,1.36,2.92,2.92,0,0,1-.34,1.39c-.23.44-.5.65-.81.65a1.66,1.66,0,0,1-.9-.3.9.9,0,0,1-.46-.77,1.55,1.55,0,0,1,.47-1.16c.31-.32.54-.47.7-.47s0,0,0,0a1.33,1.33,0,0,1-.17.38,4.31,4.31,0,0,0-.28.58,1.65,1.65,0,0,0-.11.57.85.85,0,0,0,.2.55.61.61,0,0,0,.47.23c.12,0,.23-.14.32-.41a2.92,2.92,0,0,0,.13-.9,7.93,7.93,0,0,0-.18-1.61q-.16-.93-.9-.93a3.56,3.56,0,0,0-.52,0c-.2,0-.38,0-.52,0-.32,0-.48-.17-.48-.52a2.48,2.48,0,0,1,.55-1.7A1.66,1.66,0,0,1,48,63.93a1.73,1.73,0,0,1,1,.29.88.88,0,0,1,.4.71,2.27,2.27,0,0,1-.12.68,1.13,1.13,0,0,1-.37.56.87.87,0,0,1-.48.19,0,0,0,0,1,0,0,.2.2,0,0,1,0-.08A2.29,2.29,0,0,0,48.76,65.63Z"/><path class="e" d="M56.06,64.54c0-.37-.19-.56-.44-.56a1.22,1.22,0,0,0-.89.57,1.75,1.75,0,0,0-.45,1c0,.47.15.72.45.73a1.53,1.53,0,0,0,.84-.48,1.57,1.57,0,0,1,1-.48.86.86,0,0,1,.74.48,1.62,1.62,0,0,1,.29.66.31.31,0,0,1,0,.08.08.08,0,0,1-.07,0c-.08,0-.2-.11-.39-.33a.77.77,0,0,0-.57-.34c-.1,0-.35.18-.74.54a1.83,1.83,0,0,1-1.26.53.87.87,0,0,1-.74-.4,1.7,1.7,0,0,1-.28-1,2.56,2.56,0,0,1,.63-1.42,2,2,0,0,1,1.7-.77.83.83,0,0,1,.66.28,1.14,1.14,0,0,1,.23.77c0,.36,0,.58-.14.66a.59.59,0,0,1-.36.11C56.13,65.28,56.08,65,56.06,64.54Z"/><path class="e" d="M58.38,66.73a2.56,2.56,0,0,1-.09-.94,12.51,12.51,0,0,1,.05-1.32c0-.25.06-.48.09-.7a.39.39,0,0,1,.74-.08c-.06.54-.1,1-.13,1.29s0,.59,0,.78c.05,0,.17-.21.36-.62.36-.55.74-.83,1.15-.83a.92.92,0,0,1,.79.34,2,2,0,0,1,.3,1.09,6.11,6.11,0,0,1-.06.86c0,.28-.11.43-.22.46a.24.24,0,0,1-.26-.23c0-.12,0-.28,0-.48A8.29,8.29,0,0,0,61,65.5c0-.36-.21-.56-.5-.59s-.53.32-.84,1-.67,1-1,1A.31.31,0,0,1,58.38,66.73Z"/><path class="e" d="M65.36,60.39a.37.37,0,0,1,.38-.32c.2,0,.3.06.3.17A30.68,30.68,0,0,0,65.62,64,8,8,0,0,0,66,66.85c0,.09,0,.13-.1.14s-.19-.12-.37-.38a2.39,2.39,0,0,1-.32-1.15,2.07,2.07,0,0,1-.9,1.28,1.11,1.11,0,0,1-.6.18,1.36,1.36,0,0,1-1-.38,1.53,1.53,0,0,1-.35-1.07,2.4,2.4,0,0,1,.29-1.13,1.42,1.42,0,0,1,1.29-.88,2.21,2.21,0,0,1,1.07.27A24.8,24.8,0,0,1,65.36,60.39Zm-.5,3.71a1.12,1.12,0,0,0-.73-.22.9.9,0,0,0-.57.2,1.44,1.44,0,0,0-.43.73,3.43,3.43,0,0,0-.15.87c.09.53.28.8.55.82a.74.74,0,0,0,.62-.38,5.8,5.8,0,0,0,.46-.86A3.69,3.69,0,0,0,64.86,64.1Z"/><path class="e" d="M70.61,60.43a.54.54,0,0,1,.58-.42q.33,0,.33.27a.9.9,0,0,1-.09.34c-.32,2.16-.51,3.75-.56,4.78a2.8,2.8,0,0,0,0,.4,2,2,0,0,0,.16.89.71.71,0,0,1,.13.26,0,0,0,0,1,0,0,.71.71,0,0,1-.24-.11,1.13,1.13,0,0,1-.59-.54,2.06,2.06,0,0,1-.12-.78c0-.5,0-1.24.12-2.24A27.34,27.34,0,0,1,70.61,60.43Z"/><path class="e" d="M72.31,66.73a2.56,2.56,0,0,1-.09-.94c0-.63,0-1.07,0-1.32s.06-.48.09-.7a.34.34,0,0,1,.38-.32.36.36,0,0,1,.37.24c-.07.54-.11,1-.14,1.29s0,.59,0,.78c0,0,.17-.21.36-.62.36-.55.74-.83,1.15-.83a.92.92,0,0,1,.79.34,2,2,0,0,1,.31,1.09,6.11,6.11,0,0,1-.07.86c0,.28-.11.43-.22.46a.24.24,0,0,1-.26-.23v-.48c0-.2,0-.49-.07-.85s-.2-.56-.5-.59-.52.32-.84,1-.67,1-1,1A.28.28,0,0,1,72.31,66.73Z"/><path class="e" d="M79.14,64.3a.83.83,0,0,1,.15.28,0,0,0,0,1,0,0,1,1,0,0,1-.34-.2,1.74,1.74,0,0,0-1.18-.4c-.37,0-.55.1-.55.24s.27.61.81,1.11.82.91.82,1.24a.49.49,0,0,1-.28.41,1.28,1.28,0,0,1-.6.16,1.7,1.7,0,0,1-.63-.16,1.63,1.63,0,0,1-.71-.56.71.71,0,0,1-.11-.32s0,0,0,0,.06,0,.13.09a1.26,1.26,0,0,0,.64.37,2.31,2.31,0,0,0,.49.08.57.57,0,0,0,.32-.09h0c0-.16-.24-.47-.73-.94a4.51,4.51,0,0,1-.88-1,1.35,1.35,0,0,1-.14-.47.54.54,0,0,1,.38-.49,1.84,1.84,0,0,1,.73-.17,3.62,3.62,0,0,1,.84.14A1.34,1.34,0,0,1,79.14,64.3Z"/><path class="e" d="M79.78,64.83a.61.61,0,0,1-.06-.25c0-.22.15-.39.47-.52a2.58,2.58,0,0,1,1.23-.33,2.32,2.32,0,0,1,1.29.25,1,1,0,0,1,.39.78,1.77,1.77,0,0,1-.56,1.34,7.25,7.25,0,0,1-1.74,1.13L80.56,70c-.11,0-.21-.15-.32-.45a2.51,2.51,0,0,1-.15-.7c0-1.46.11-2.9.2-4.3ZM81,64.32l-.15,2.2a3.09,3.09,0,0,0,1.32-.88,1.59,1.59,0,0,0,.34-1c0-.24-.26-.39-.72-.43A2.79,2.79,0,0,0,81,64.32Z"/><path class="e" d="M84,64.49c.08-.29.2-.43.36-.44h.42c.1,0,.15.12.15.37,0,.72-.07,1.31-.12,1.76s-.12.69-.23.69h0a.68.68,0,0,1-.32-.09c-.08,0-.12-.34-.12-.92,0-.3,0-.83.05-1.59Zm.31-1.83a.43.43,0,0,1,.31-.13.62.62,0,0,1,.31.1c.11.07.16.14.16.23a.36.36,0,0,1-.13.24.43.43,0,0,1-.31.13.62.62,0,0,1-.31-.1.31.31,0,0,1-.16-.25A.33.33,0,0,1,84.3,62.66Z"/><path class="e" d="M86,63.69c0-.11.11-.16.27-.16.36,0,.54.34.54,1a1.89,1.89,0,0,1,1.34-.78c.29,0,.46,0,.52.1a.3.3,0,0,1,.08.16c0,.08-.18.17-.54.26a1.74,1.74,0,0,0-1,.65,1.86,1.86,0,0,0-.44,1.16c0,.44-.07.69-.17.76a.51.51,0,0,1-.32.1c-.14,0-.21-.15-.21-.44a4.12,4.12,0,0,1,0-.62,5.46,5.46,0,0,0,0-.57,5.07,5.07,0,0,0-.1-1.15A2.87,2.87,0,0,1,86,63.69Z"/><path class="e" d="M89.33,64.49c.09-.29.21-.43.37-.44h.42c.1,0,.15.12.15.37,0,.72-.07,1.31-.12,1.76s-.13.69-.23.69h0a.75.75,0,0,1-.33-.09c-.07,0-.11-.34-.11-.92,0-.3,0-.83,0-1.59Zm.32-1.83a.42.42,0,0,1,.31-.13.56.56,0,0,1,.3.1c.11.07.17.14.17.23a.38.38,0,0,1-.14.24.42.42,0,0,1-.31.13.56.56,0,0,1-.3-.1.33.33,0,0,1-.17-.25A.35.35,0,0,1,89.65,62.66Z"/><path class="e" d="M91.42,66.73a2.56,2.56,0,0,1-.09-.94c0-.63,0-1.07,0-1.32s.06-.48.09-.7a.34.34,0,0,1,.38-.32.36.36,0,0,1,.37.24c-.07.54-.11,1-.14,1.29s0,.59,0,.78c0,0,.17-.21.36-.62.36-.55.74-.83,1.15-.83a.92.92,0,0,1,.79.34,2,2,0,0,1,.31,1.09,6.11,6.11,0,0,1-.07.86c0,.28-.11.43-.22.46a.24.24,0,0,1-.26-.23v-.48c0-.2,0-.49-.07-.85s-.2-.56-.5-.59-.52.32-.84,1-.67,1-1,1A.28.28,0,0,1,91.42,66.73Z"/><path class="e" d="M98.06,65.63a2.34,2.34,0,0,0,.06-.44A1.85,1.85,0,0,0,98,64.5a.43.43,0,0,0-.42-.3,1,1,0,0,0-.92.6A2.42,2.42,0,0,0,96.33,66c0,.29.18.44.56.44h.38a1.55,1.55,0,0,1,1.43,1.13,4.87,4.87,0,0,1,.2,1.36,2.92,2.92,0,0,1-.34,1.39c-.23.44-.5.65-.81.65a1.66,1.66,0,0,1-.9-.3.9.9,0,0,1-.46-.77,1.58,1.58,0,0,1,.47-1.16c.31-.32.55-.47.7-.47s0,0,0,0a1.33,1.33,0,0,1-.17.38,4.31,4.31,0,0,0-.28.58,1.65,1.65,0,0,0-.11.57.85.85,0,0,0,.2.55.61.61,0,0,0,.47.23c.12,0,.23-.14.32-.41a2.93,2.93,0,0,0,.14-.9A7.93,7.93,0,0,0,98,67.63c-.12-.62-.42-.93-.91-.93a3.66,3.66,0,0,0-.52,0c-.2,0-.37,0-.52,0-.32,0-.48-.17-.48-.52a2.44,2.44,0,0,1,.56-1.7,1.64,1.64,0,0,1,1.24-.63,1.73,1.73,0,0,1,1,.29.86.86,0,0,1,.4.71,2.27,2.27,0,0,1-.12.68,1.07,1.07,0,0,1-.37.56.87.87,0,0,1-.48.19,0,0,0,0,1,0,0,.2.2,0,0,1,0-.08A2.29,2.29,0,0,0,98.06,65.63Z"/><path class="e" d="M103.22,61a1.78,1.78,0,0,0-.4-.49c-.13-.09-.19-.15-.19-.17s.28-.18.83-.25a11.57,11.57,0,0,1,1.41-.1,10.28,10.28,0,0,1,1.86.19,6.31,6.31,0,0,1,1.44.38c.26.12.39.2.39.23s-.09.06-.25.06a10.09,10.09,0,0,1-1.09-.12,15.07,15.07,0,0,0-1.87-.11,17.28,17.28,0,0,0-2.07.13Zm1.79.17a.65.65,0,0,1,.35-.39,1.06,1.06,0,0,1,.32-.11c.08,0,.12,0,.12.16s-.07.83-.14,1.75-.12,1.9-.13,3c0,.75.09,1.2.27,1.33s.15.13.15.16,0,.05-.13.05a1,1,0,0,1-.61-.31,1.64,1.64,0,0,1-.41-1.12c0-.53,0-.93,0-1.2,0-.55,0-1.19.07-1.91A5,5,0,0,1,105,61.14Z"/><path class="e" d="M108.8,64.9c.54-.27.82-.54.82-.8s-.09-.24-.28-.24a1.63,1.63,0,0,0-1.09.46,1.65,1.65,0,0,0-.51,1.28.91.91,0,0,0,.37.73,1.51,1.51,0,0,0,1,.28,3,3,0,0,0,1.49-.42,1.83,1.83,0,0,1,.23-.13s0,0,0,.06-.06.11-.19.26a2.25,2.25,0,0,1-.66.46,2.65,2.65,0,0,1-1.2.23,1.94,1.94,0,0,1-1.18-.35,1.4,1.4,0,0,1-.56-1.07,1.88,1.88,0,0,1,.69-1.55,2.7,2.7,0,0,1,1.75-.56,1.13,1.13,0,0,1,.58.14.47.47,0,0,1,.23.42,1.23,1.23,0,0,1-.56.8,3.86,3.86,0,0,1-1.26.55,3.46,3.46,0,0,1-.6.1s-.08,0-.08,0,0,0,0-.07A8.35,8.35,0,0,1,108.8,64.9Z"/><path class="e" d="M114.06,64.48a.84.84,0,0,0-.73-.38,1.3,1.3,0,0,0-1.12.54,1.9,1.9,0,0,0-.32,1,.85.85,0,0,0,.39.72,1.58,1.58,0,0,0,.8.22,3.82,3.82,0,0,0,.63-.1,4.06,4.06,0,0,0,1-.43A1.1,1.1,0,0,1,115,66h0a3.45,3.45,0,0,1-.67.58,2.37,2.37,0,0,1-1.49.52,1.83,1.83,0,0,1-1.2-.37,1.19,1.19,0,0,1-.45-1,2.24,2.24,0,0,1,.35-1.23,1.75,1.75,0,0,1,.84-.73,2.81,2.81,0,0,1,1-.18,1.23,1.23,0,0,1,.75.21c.18.14.28.26.28.35S114.29,64.48,114.06,64.48Z"/><path class="e" d="M116.09,60.3a1.1,1.1,0,0,1,.77-.29l-.75,6.35c.58-1.19,1.18-1.79,1.8-1.79s.82.46.91,1.26a8.11,8.11,0,0,1,.06.85.84.84,0,0,1-.07.45.09.09,0,0,1-.06,0c-.09,0-.2-.27-.34-.82-.15-.75-.33-1.12-.54-1.12s-.53.32-.82,1-.67.86-.92.86a.6.6,0,0,1-.55-.26,1.26,1.26,0,0,1-.15-.64A58.75,58.75,0,0,1,116.09,60.3Z"/><path class="e" d="M119.69,66.73a2.56,2.56,0,0,1-.09-.94c0-.63,0-1.07,0-1.32s.06-.48.09-.7a.34.34,0,0,1,.38-.32.35.35,0,0,1,.37.24c-.06.54-.11,1-.13,1.29s0,.59,0,.78c0,0,.17-.21.36-.62a1.49,1.49,0,0,1,1.15-.83.91.91,0,0,1,.79.34,1.94,1.94,0,0,1,.31,1.09,6.11,6.11,0,0,1-.06.86c0,.28-.12.43-.23.46a.23.23,0,0,1-.25-.23c0-.12,0-.28,0-.48s0-.49-.07-.85-.2-.56-.49-.59-.53.32-.85,1-.67,1-1,1A.29.29,0,0,1,119.69,66.73Z"/><path class="e" d="M124.08,64.33a1.2,1.2,0,0,1,1.18-.91,1.75,1.75,0,0,1,1.5.7,2.31,2.31,0,0,1,.48,1.25,1.56,1.56,0,0,1-.59,1.09,1.9,1.9,0,0,1-1.44.61,1.67,1.67,0,0,1-1.07-.36,1.1,1.1,0,0,1-.37-.87A4.81,4.81,0,0,1,124.08,64.33Zm2,.06a1.28,1.28,0,0,0-.75-.41c-.25,0-.46.21-.61.63a3.08,3.08,0,0,0-.24,1.06.89.89,0,0,0,.19.64.6.6,0,0,0,.48.21,1.49,1.49,0,0,0,.9-.4,1.13,1.13,0,0,0,.48-.83A1.2,1.2,0,0,0,126.08,64.39Z"/><path class="e" d="M128.77,60.17a1,1,0,0,1,.75-.28,28.4,28.4,0,0,0-.75,5.48,3,3,0,0,0,.12.82.48.48,0,0,0,.5.41,1.5,1.5,0,0,0,.59-.13,1.36,1.36,0,0,1,.37-.14c.09,0,.13,0,.13,0s-.13.21-.41.41a1.68,1.68,0,0,1-1,.29.85.85,0,0,1-.87-.58A3.51,3.51,0,0,1,128,65.3,21.91,21.91,0,0,1,128.77,60.17Z"/><path class="e" d="M130.9,64.33a1.2,1.2,0,0,1,1.18-.91,1.75,1.75,0,0,1,1.5.7,2.31,2.31,0,0,1,.48,1.25,1.54,1.54,0,0,1-.6,1.09,1.87,1.87,0,0,1-1.43.61,1.67,1.67,0,0,1-1.07-.36,1.1,1.1,0,0,1-.37-.87A4.81,4.81,0,0,1,130.9,64.33Zm2,.06a1.28,1.28,0,0,0-.75-.41c-.25,0-.46.21-.61.63a3.08,3.08,0,0,0-.24,1.06.89.89,0,0,0,.19.64.6.6,0,0,0,.48.21,1.49,1.49,0,0,0,.9-.4,1.13,1.13,0,0,0,.48-.83A1.2,1.2,0,0,0,132.9,64.39Z"/><path class="e" d="M137.33,65.63a2.34,2.34,0,0,0,.06-.44,1.85,1.85,0,0,0-.12-.69.43.43,0,0,0-.42-.3,1,1,0,0,0-.92.6A2.42,2.42,0,0,0,135.6,66c0,.29.18.44.56.44h.38A1.55,1.55,0,0,1,138,67.52a4.53,4.53,0,0,1,.2,1.36,2.92,2.92,0,0,1-.34,1.39c-.23.44-.5.65-.81.65a1.66,1.66,0,0,1-.9-.3.9.9,0,0,1-.46-.77,1.58,1.58,0,0,1,.47-1.16c.31-.32.55-.47.7-.47s0,0,0,0a1.33,1.33,0,0,1-.17.38,6,6,0,0,0-.28.58,1.65,1.65,0,0,0-.11.57.85.85,0,0,0,.2.55.61.61,0,0,0,.47.23c.12,0,.23-.14.32-.41a2.93,2.93,0,0,0,.14-.9,7.93,7.93,0,0,0-.18-1.61c-.12-.62-.42-.93-.91-.93a3.66,3.66,0,0,0-.52,0c-.2,0-.37,0-.52,0-.32,0-.48-.17-.48-.52a2.44,2.44,0,0,1,.56-1.7,1.64,1.64,0,0,1,1.25-.63,1.72,1.72,0,0,1,1,.29.86.86,0,0,1,.4.71,2.27,2.27,0,0,1-.12.68,1.07,1.07,0,0,1-.37.56.87.87,0,0,1-.48.19,0,0,0,0,1,0,0,.2.2,0,0,1,0-.08A2.29,2.29,0,0,0,137.33,65.63Z"/><path class="e" d="M139.94,63.85a1.77,1.77,0,0,0-.43,1.28,1,1,0,0,0,.18.65.52.52,0,0,0,.43.23c.23,0,.48-.24.73-.69a2.71,2.71,0,0,1,.77-.95,1.3,1.3,0,0,1,.72-.26c.21,0,.35.17.4.46a5.19,5.19,0,0,1,.08.86,4.88,4.88,0,0,1-.38,1.66,7.19,7.19,0,0,0-.38,2.52,3.29,3.29,0,0,0,.25,1.28,2.32,2.32,0,0,1-1-1.89,7.2,7.2,0,0,1,.45-2.12,5.47,5.47,0,0,0,.41-1.89,1.05,1.05,0,0,0,0-.34,4.24,4.24,0,0,1-1,1.53,1.58,1.58,0,0,1-.7.31h-.28a1.34,1.34,0,0,1-1-.36,1.26,1.26,0,0,1-.38-.9h0A1.36,1.36,0,0,1,139.94,63.85Z"/></svg>